<svg width="35" height="35" viewBox="0 0 35 35" fill="none" xmlns="http://www.w3.org/2000/svg">
<circle opacity="0.5" cx="17.5" cy="17.5" r="17.5" fill="#F2E5FF"/>
<path d="M17 6C10.3768 6 5 11.3768 5 18C5 24.6232 10.3768 30 17 30C23.6232 30 29 24.6232 29 18C29 11.3768 23.6232 6 17 6ZM17 27.9715C11.501 27.9715 7.02851 23.499 7.02851 18C7.02851 12.501 11.501 8.02851 17 8.02851C22.499 8.02851 26.9715 12.501 26.9715 18C26.9715 23.499 22.499 27.9715 17 27.9715Z" fill="#141E35"/>
<path d="M15.1627 22.1091C15.3093 22.1825 15.4559 22.2069 15.6026 22.2069C15.7736 22.2069 15.9692 22.158 16.1158 22.0358L21.0527 18.6631C21.2971 18.492 21.4437 18.1988 21.4437 17.9055C21.4437 17.6122 21.2971 17.3189 21.0282 17.1478L16.0914 13.8729C15.7981 13.6774 15.4559 13.6774 15.1382 13.824C14.8449 13.9951 14.6494 14.2884 14.6494 14.6305V21.2782C14.6739 21.6448 14.8449 21.9625 15.1627 22.1091Z" fill="#141E35"/>
</svg>
