<svg width="19" height="19" viewBox="0 0 19 19" fill="none" xmlns="http://www.w3.org/2000/svg">
<g clip-path="url(#clip0_3337_12716)">
<path d="M9.5 19C14.7467 19 19 14.7467 19 9.5C19 4.25329 14.7467 0 9.5 0C4.25329 0 0 4.25329 0 9.5C0 14.7467 4.25329 19 9.5 19Z" fill="#D8B4FE"/>
<path d="M8.70828 13.4583V8.70834C8.70828 8.49838 8.7917 8.29707 8.94017 8.14861C9.08863 8.00014 9.28999 7.91667 9.49995 7.91667C9.70991 7.91667 9.91126 8.00014 10.0597 8.14861C10.2082 8.29707 10.2916 8.49838 10.2916 8.70834V13.4583C10.2916 13.6683 10.2082 13.8696 10.0597 14.0181C9.91126 14.1665 9.70991 14.25 9.49995 14.25C9.28999 14.25 9.08863 14.1665 8.94017 14.0181C8.7917 13.8696 8.70828 13.6683 8.70828 13.4583ZM8.50244 5.43885C8.50244 5.26192 8.55492 5.08885 8.65322 4.94174C8.75152 4.79463 8.89122 4.67991 9.05468 4.6122C9.21815 4.54449 9.39803 4.52685 9.57156 4.56137C9.74509 4.59589 9.90449 4.68114 10.0296 4.80625C10.1547 4.93136 10.2399 5.09079 10.2744 5.26432C10.309 5.43785 10.2912 5.61768 10.2235 5.78115C10.1558 5.94461 10.0412 6.08429 9.89404 6.18258C9.74693 6.28088 9.57396 6.33334 9.39703 6.33334C9.15977 6.33334 8.93224 6.23902 8.76448 6.07126C8.59671 5.90349 8.50244 5.67611 8.50244 5.43885Z" fill="#141E35"/>
</g>
<defs>
<clipPath id="clip0_3337_12716">
<rect width="19" height="19" fill="white"/>
</clipPath>
</defs>
</svg>
