<svg width="19" height="16" viewBox="0 0 19 16" fill="none" xmlns="http://www.w3.org/2000/svg">
<path opacity="0.5" d="M9.32163 0C12.9535 0.0493551 15.9894 1.28583 18.5061 3.77325C19.0275 4.2887 19.1466 4.90805 18.813 5.33517C18.4727 5.77083 17.7966 5.81945 17.1865 5.43759C17.0122 5.32538 16.8496 5.19596 16.7011 5.05129C12.6915 1.22831 6.54179 1.104 2.36368 4.76852C1.95919 5.12328 1.51722 5.3656 0.963182 5.32775C0.575763 5.3014 0.264047 5.13515 0.0896341 4.77445C-0.0892316 4.40336 0.0176425 4.0653 0.251059 3.75915C0.356261 3.62763 0.473542 3.50625 0.601368 3.39659C3.11031 1.14556 6.06642 0.0560347 9.32163 0Z" fill="#EF4343"/>
<path d="M9.57974 4.22301C12.0816 4.27348 14.1508 5.22088 15.9911 6.73641C16.2219 6.92641 16.3855 7.18432 16.495 7.46561C16.6342 7.8226 16.6572 8.18181 16.3885 8.4913C16.1132 8.80784 15.7447 8.86054 15.3558 8.77333C14.9379 8.67982 14.6162 8.42154 14.3034 8.14248C11.8085 5.90925 8.10837 5.75488 5.4714 7.77138C5.23501 7.95211 5.0183 8.15843 4.79416 8.35474C4.45016 8.65569 4.06348 8.84347 3.59331 8.80599C2.98101 8.75737 2.6255 8.24044 2.79361 7.65264C2.88161 7.35201 3.05207 7.08204 3.28567 6.87335C5.08732 5.21828 7.18027 4.25827 9.57974 4.22301Z" fill="#EF4343"/>
<path d="M10.047 8.62304C10.6884 8.63466 11.321 8.77379 11.9081 9.03232C12.4952 9.29086 13.025 9.66363 13.4666 10.1289C13.7816 10.4581 13.9991 10.8292 13.8748 11.3164C13.7174 11.9372 12.9708 12.2282 12.4509 11.7465C10.833 10.2473 8.58229 10.2362 6.86674 11.6608C6.38803 12.0582 6.08077 12.0909 5.69817 11.7844C5.31558 11.4778 5.2228 10.9591 5.47737 10.4855C5.61468 10.2302 5.81544 10.0291 6.03809 9.84726C7.02074 9.04719 8.28801 8.62044 10.047 8.62304Z" fill="#EF4343"/>
<path d="M11.2305 14.1653C11.2303 14.3722 11.1891 14.577 11.1093 14.7679C11.0296 14.9588 10.9128 15.1321 10.7657 15.2776C10.6186 15.4231 10.4441 15.5381 10.2524 15.6158C10.0606 15.6936 9.8554 15.7326 9.6485 15.7305C8.74675 15.7261 8.04984 15.0199 8.06469 14.1245C8.0799 13.1941 8.78534 12.4917 9.68932 12.5102C10.5606 12.5265 11.2379 13.2531 11.2305 14.1653Z" fill="#EF4343"/>
</svg>
