<svg width="14" height="14" viewBox="0 0 14 14" fill="none" xmlns="http://www.w3.org/2000/svg">
<path d="M10.1653 1.00009C9.98176 1.0029 9.80654 1.07711 9.67679 1.20693L1.20611 9.67746C1.07398 9.80992 0.999853 9.9894 1 10.1765V12.2941C1 12.4813 1.07438 12.6609 1.20676 12.7932C1.33914 12.9256 1.51868 13 1.70589 13H3.82356C4.01076 13 4.19025 12.9255 4.3226 12.7932L12.7933 4.32263C12.9256 4.19026 13 4.01077 13 3.8236C13 3.63642 12.9256 3.45693 12.7933 3.32456L10.6756 1.20693C10.6087 1.14002 10.5291 1.08723 10.4415 1.0517C10.3538 1.01617 10.2599 0.998605 10.1653 1.00009ZM10.1766 2.70408L11.2961 3.8236L10.1766 4.94312L9.05703 3.8236L10.1766 2.70408ZM8.0589 4.82171L9.17844 5.94123L3.53132 11.5882H2.41178V10.4687L8.0589 4.82171Z" fill="#9234EA" stroke="#FCFCFC" stroke-width="0.5"/>
</svg>
