<svg width="26" height="26" viewBox="0 0 26 26" fill="none" xmlns="http://www.w3.org/2000/svg">
<rect width="26" height="26" fill="#E2E2E2"/>
<g id="Camera Settings" clip-path="url(#clip0_1146_8546)">
<rect width="1512" height="982" transform="translate(-1028 -149)" fill="#FCFCFC"/>
<rect id="Rectangle 5851" x="-1028" y="-149" width="1512" height="982" fill="black" fill-opacity="0.8"/>
<g id="Group 1000006049" filter="url(#filter0_d_1146_8546)">
<path id="Rectangle 5843" d="M-600 -9.00001C-600 -13.4183 -596.418 -17 -592 -17H48C52.4183 -17 56 -13.4183 56 -9V648H-600V-9.00001Z" fill="#FCFCFC"/>
<path id="Vector" d="M13.0002 0C5.83207 0 0 5.83148 0 13C0 20.1682 5.83207 26 13.0002 26C20.1689 26 26 20.1682 26 13C26 5.83148 20.1689 0 13.0002 0ZM13.0002 23.9132C6.98305 23.9132 2.0878 19.0175 2.0878 13C2.0878 6.98248 6.98305 2.08716 13.0002 2.08716C19.0176 2.08716 23.9125 6.98248 23.9125 13C23.9125 19.0175 19.0176 23.9132 13.0002 23.9132ZM12.7936 17.1902C12.3302 17.1902 11.9349 17.3541 11.6079 17.6805C11.2811 18.0075 11.1176 18.4028 11.1176 18.8656C11.1176 19.329 11.2811 19.7243 11.6079 20.0513C11.9349 20.3781 12.3302 20.5416 12.7936 20.5416C13.2567 20.5416 13.6523 20.3781 13.9797 20.0513C14.3061 19.7243 14.4696 19.329 14.4696 18.8656C14.4696 18.4028 14.3061 18.0075 13.9797 17.6805C13.6526 17.3541 13.257 17.1902 12.7936 17.1902ZM16.4684 6.41542C15.9771 6.08935 15.4216 5.84869 14.8023 5.69211C14.1829 5.53586 13.5467 5.45774 12.8942 5.45774C12.2693 5.45774 11.6711 5.55937 11.0997 5.76362C10.5287 5.9672 10.0219 6.24229 9.5803 6.58822C9.13805 6.93481 8.78451 7.33536 8.51969 7.79086C8.25487 8.2457 8.12212 8.72471 8.12212 9.22788C8.12212 9.63571 8.25453 9.94489 8.51969 10.1561C8.78451 10.3666 9.09436 10.4722 9.44789 10.4722C9.77396 10.4722 10.0292 10.404 10.2126 10.268C10.3966 10.1323 10.5492 9.96608 10.6717 9.76845C10.7942 9.57116 10.9024 9.35764 10.9978 9.12625C11.0931 8.89519 11.2182 8.68068 11.3751 8.48371C11.5321 8.28675 11.7353 8.12057 11.9875 7.98419C12.2388 7.84813 12.5817 7.78027 13.017 7.78027C13.6291 7.78027 14.1081 7.93321 14.4547 8.23941C14.8013 8.54529 14.9751 8.97728 14.9751 9.53408C14.9751 9.87438 14.887 10.1736 14.7126 10.4315C14.5375 10.69 14.3177 10.9383 14.0525 11.1763C13.7874 11.414 13.5023 11.6451 13.1965 11.8699C12.8906 12.094 12.6046 12.3353 12.3394 12.5938C12.0746 12.852 11.8538 13.1344 11.6774 13.4406C11.5003 13.7465 11.4125 14.1033 11.4125 14.5112C11.4125 14.8369 11.5208 15.1464 11.7386 15.4387C11.9558 15.7317 12.2822 15.8777 12.7178 15.8777C13.0574 15.8777 13.3127 15.8227 13.4828 15.7141C13.6523 15.6059 13.7847 15.4665 13.8804 15.296C13.9747 15.1262 14.0535 14.9392 14.1144 14.7349C14.176 14.5317 14.2677 14.341 14.3898 14.1639C14.4984 14.0007 14.6652 13.8378 14.8903 13.6746C15.1148 13.5114 15.363 13.331 15.6352 13.1341C15.9073 12.9371 16.19 12.7193 16.4829 12.4813C16.7752 12.2439 17.041 11.9817 17.2787 11.6964C17.5167 11.4104 17.7107 11.0913 17.8607 10.7377C18.01 10.3842 18.0858 9.98329 18.0858 9.53408C18.0858 8.81342 17.9391 8.19505 17.6455 7.6793C17.3515 7.16256 16.9589 6.74149 16.4684 6.41542Z" fill="#9234EA"/>
</g>
</g>
<defs>
<filter id="filter0_d_1146_8546" x="-619" y="-35" width="696" height="757" filterUnits="userSpaceOnUse" color-interpolation-filters="sRGB">
<feFlood flood-opacity="0" result="BackgroundImageFix"/>
<feColorMatrix in="SourceAlpha" type="matrix" values="0 0 0 0 0 0 0 0 0 0 0 0 0 0 0 0 0 0 127 0" result="hardAlpha"/>
<feOffset dx="1" dy="2"/>
<feGaussianBlur stdDeviation="10"/>
<feComposite in2="hardAlpha" operator="out"/>
<feColorMatrix type="matrix" values="0 0 0 0 0 0 0 0 0 0 0 0 0 0 0 0 0 0 0.25 0"/>
<feBlend mode="normal" in2="BackgroundImageFix" result="effect1_dropShadow_1146_8546"/>
<feBlend mode="normal" in="SourceGraphic" in2="effect1_dropShadow_1146_8546" result="shape"/>
</filter>
<clipPath id="clip0_1146_8546">
<rect width="1512" height="982" fill="white" transform="translate(-1028 -149)"/>
</clipPath>
</defs>
</svg>
