<svg width="26" height="19" viewBox="0 0 26 19" fill="none" xmlns="http://www.w3.org/2000/svg">
<path d="M12.7622 0.000177594C12.5542 0.00305135 12.3525 0.0720816 12.1863 0.197268L6.39259 4.54446C6.2721 4.63583 6.1744 4.75385 6.10713 4.88929C6.03986 5.02472 6.00486 5.17389 6.00486 5.32511C6.00486 5.47633 6.03986 5.6255 6.10713 5.76094C6.1744 5.89637 6.2721 6.0144 6.39259 6.10577L12.1863 10.453C12.2892 10.5305 12.4065 10.5871 12.5313 10.6192C12.6561 10.6514 12.7861 10.6587 12.9137 10.6405C13.0413 10.6224 13.1641 10.5793 13.275 10.5136C13.386 10.4479 13.4828 10.361 13.5601 10.2578C13.638 10.1548 13.6947 10.0374 13.7271 9.91239C13.7594 9.78738 13.7668 9.6572 13.7486 9.52935C13.7305 9.4015 13.6873 9.27849 13.6214 9.16741C13.5556 9.05632 13.4684 8.95936 13.3649 8.88208L9.91512 6.30092H18.1943C21.1519 6.30092 23.5097 8.67773 23.5097 11.6737C23.5097 14.6696 21.1519 17.0407 18.1943 17.0407H0.975825C0.847176 17.0412 0.719886 17.067 0.601221 17.1167C0.482557 17.1664 0.374844 17.239 0.28423 17.3303C0.193617 17.4217 0.121879 17.5299 0.0731119 17.649C0.0243449 17.768 -0.000496007 17.8955 7.50373e-06 18.0242C0.00101524 18.2827 0.104148 18.5303 0.286931 18.7131C0.469714 18.8959 0.717332 18.999 0.975825 19H18.1943C22.2124 19 25.469 15.7124 25.469 11.6737C25.469 7.63498 22.2124 4.34928 18.1943 4.34928H9.91512L13.3649 1.76623C13.4681 1.68896 13.555 1.59209 13.6207 1.48117C13.6864 1.37025 13.7295 1.24746 13.7477 1.11983C13.7658 0.992207 13.7586 0.862257 13.7264 0.737433C13.6942 0.612609 13.6377 0.495365 13.5601 0.392421C13.483 0.289419 13.3864 0.202609 13.2758 0.13695C13.1651 0.0712899 13.0426 0.0280657 12.9153 0.00974506C12.8646 0.00254088 12.8134 -0.000618591 12.7622 0.000177594Z" fill="#141E35"/>
</svg>
