<svg width="24" height="24" viewBox="0 0 24 24" fill="none" xmlns="http://www.w3.org/2000/svg">
<path d="M12 15C13.6569 15 15 13.6569 15 12C15 10.3431 13.6569 9 12 9C10.3431 9 9 10.3431 9 12C9 13.6569 10.3431 15 12 15Z" stroke="#141E35" stroke-linecap="round" stroke-linejoin="round"/>
<path d="M12 4.5C12.0037 3.87437 11.7727 3.2701 11.3526 2.80649C10.9325 2.34288 10.3538 2.05363 9.73087 1.99586C9.10791 1.93808 8.48593 2.11598 7.98774 2.49443C7.48955 2.87288 7.15137 3.42436 7.03996 4.04C6.71031 4.10176 6.39646 4.22921 6.11709 4.41478C5.83773 4.60034 5.59855 4.84022 5.41381 5.12014C5.22907 5.40005 5.10253 5.71427 5.04174 6.0441C4.98095 6.37393 4.98715 6.71261 5.05996 7.04C4.60862 7.12012 4.188 7.32279 3.84408 7.62586C3.50017 7.92892 3.2462 8.32071 3.10994 8.75839C2.97368 9.19606 2.96038 9.66278 3.0715 10.1075C3.18261 10.5522 3.41386 10.9578 3.73996 11.28C3.19149 11.5332 2.73224 11.9461 2.42232 12.4646C2.1124 12.9832 1.96625 13.5832 2.00299 14.1862C2.03973 14.7892 2.25766 15.367 2.62824 15.8441C2.99883 16.3212 3.50481 16.6752 4.07996 16.86C3.97014 17.2748 3.96897 17.711 4.07655 18.1264C4.18412 18.5419 4.39683 18.9226 4.69419 19.232C4.99155 19.5415 5.36355 19.7691 5.77439 19.8931C6.18523 20.0171 6.62107 20.0332 7.03996 19.94C7.15111 20.5539 7.48776 21.104 7.98381 21.4824C8.47986 21.8607 9.09944 22.04 9.72087 21.9848C10.3423 21.9297 10.9207 21.6442 11.3424 21.1845C11.7641 20.7247 11.9986 20.1239 12 19.5C12.0013 20.1239 12.2359 20.7247 12.6576 21.1845C13.0793 21.6442 13.6576 21.9297 14.279 21.9848C14.9005 22.04 15.5201 21.8607 16.0161 21.4824C16.5122 21.104 16.8488 20.5539 16.96 19.94C17.3788 20.0332 17.8147 20.0171 18.2255 19.8931C18.6364 19.7691 19.0084 19.5415 19.3057 19.232C19.6031 18.9226 19.8158 18.5419 19.9234 18.1264C20.031 17.711 20.0298 17.2748 19.92 16.86C20.4951 16.6752 21.0011 16.3212 21.3717 15.8441C21.7423 15.367 21.9602 14.7892 21.9969 14.1862C22.0337 13.5832 21.8875 12.9832 21.5776 12.4646C21.2677 11.9461 20.8084 11.5332 20.26 11.28C20.5861 10.9578 20.8173 10.5522 20.9284 10.1075C21.0395 9.66278 21.0262 9.19606 20.89 8.75839C20.7537 8.32071 20.4997 7.92892 20.1558 7.62586C19.8119 7.32279 19.3913 7.12012 18.94 7.04C19.0128 6.71261 19.019 6.37393 18.9582 6.0441C18.8974 5.71427 18.7709 5.40005 18.5861 5.12014C18.4014 4.84022 18.1622 4.60034 17.8828 4.41478C17.6035 4.22921 17.2896 4.10176 16.96 4.04C16.8486 3.42436 16.5104 2.87288 16.0122 2.49443C15.514 2.11598 14.892 1.93808 14.2691 1.99586C13.6461 2.05363 13.0674 2.34288 12.6473 2.80649C12.2272 3.2701 11.9963 3.87437 12 4.5Z" stroke="#141E35" stroke-linecap="round" stroke-linejoin="round"/>
<path d="M15.7 10.4L14.8 10.8" stroke="#141E35" stroke-linecap="round" stroke-linejoin="round"/>
<path d="M9.20005 13.2L8.30005 13.6" stroke="#141E35" stroke-linecap="round" stroke-linejoin="round"/>
<path d="M13.6 15.7L13.2 14.8" stroke="#141E35" stroke-linecap="round" stroke-linejoin="round"/>
<path d="M10.8 9.2L10.4 8.3" stroke="#141E35" stroke-linecap="round" stroke-linejoin="round"/>
<path d="M15.7 13.5L14.8 13.1" stroke="#141E35" stroke-linecap="round" stroke-linejoin="round"/>
<path d="M9.20005 10.9L8.30005 10.5" stroke="#141E35" stroke-linecap="round" stroke-linejoin="round"/>
<path d="M10.5 15.7L10.9 14.8" stroke="#141E35" stroke-linecap="round" stroke-linejoin="round"/>
<path d="M13.1 9.2L13.5 8.3" stroke="#141E35" stroke-linecap="round" stroke-linejoin="round"/>
</svg>
