<svg width="23" height="46" viewBox="0 0 23 46" fill="none" xmlns="http://www.w3.org/2000/svg">
<path d="M0 0L15 0C19.4183 0 23 3.58172 23 8L23 38C23 42.4183 19.4183 46 15 46H0L0 0Z" fill="#FCFCFC"/>
<path d="M9.41224 22.4986L14.7078 17.5848C14.8006 17.4984 14.8741 17.396 14.9243 17.2832C14.9744 17.1705 15.0001 17.0497 15 16.9277C14.9999 16.8058 14.9738 16.685 14.9234 16.5724C14.8731 16.4598 14.7993 16.3575 14.7063 16.2713C14.6133 16.1852 14.5029 16.1169 14.3815 16.0703C14.2601 16.0238 14.13 15.9999 13.9986 16C13.8673 16.0001 13.7372 16.0243 13.6159 16.0711C13.4946 16.1179 13.3844 16.1864 13.2916 16.2727L7.29103 21.844C7.10976 22.0132 7.00562 22.2407 7.00022 22.4793C6.99482 22.7179 7.08857 22.9493 7.26202 23.1254L13.2866 28.7273C13.474 28.9016 13.7283 28.9997 13.9936 29C14.2589 29.0003 14.5135 28.9027 14.7013 28.7287C14.8891 28.5547 14.9947 28.3186 14.995 28.0723C14.9953 27.8259 14.8902 27.5896 14.7028 27.4153L9.41224 22.4986Z" fill="#141E35"/>
</svg>
