<svg width="7" height="11" viewBox="0 0 7 11" fill="none" xmlns="http://www.w3.org/2000/svg">
<path d="M4.39002 5.50134L0.229658 9.65934C0.156761 9.73239 0.0989655 9.81909 0.0595726 9.91448C0.0201801 10.0099 -3.82246e-05 10.1121 7.09801e-05 10.2153C0.000180662 10.3185 0.0206165 10.4207 0.0602111 10.516C0.0998063 10.6113 0.157785 10.6978 0.230838 10.7707C0.303891 10.8436 0.390585 10.9014 0.485974 10.9408C0.581362 10.9802 0.683576 11.0004 0.786778 11.0003C0.88998 11.0002 0.992151 10.9798 1.08746 10.9402C1.18276 10.9006 1.26933 10.8426 1.34223 10.7696L6.05652 6.05527C6.19892 5.91209 6.28074 5.71958 6.28498 5.51769C6.28922 5.31579 6.21557 5.12002 6.0793 4.97098L1.34616 0.23077C1.19894 0.0832333 0.999133 0.000223622 0.790706 2.38769e-06C0.582279 -0.000218847 0.382301 0.0823665 0.234765 0.22959C0.0872288 0.376813 0.00422053 0.576616 0.00399929 0.785042C0.00377854 0.993469 0.0863634 1.19345 0.233587 1.34098L4.39002 5.50134Z" fill="#141E35"/>
</svg>
