<svg width="116" height="35" viewBox="0 0 116 35" fill="none" xmlns="http://www.w3.org/2000/svg">
<circle opacity="0.5" cx="17.5" cy="17.5" r="17.5" transform="rotate(-180 17.5 17.5)" fill="#F2E5FF"/>
<path d="M17.5 30C24.3992 30 30 24.3992 30 17.5C30 10.6008 24.3992 5 17.5 5C10.6008 5 5 10.6008 5 17.5C5 24.3992 10.6008 30 17.5 30ZM17.5 7.11303C23.2281 7.11303 27.887 11.7719 27.887 17.5C27.887 23.2281 23.2281 27.887 17.5 27.887C11.7719 27.887 7.11303 23.2281 7.11303 17.5C7.11303 11.7719 11.7719 7.11303 17.5 7.11303Z" fill="#141E35"/>
<path d="M15.4122 17.4986L20.7078 12.5848C20.8006 12.4984 20.8741 12.396 20.9243 12.2832C20.9744 12.1705 21.0001 12.0497 21 11.9277C20.9999 11.8058 20.9738 11.685 20.9234 11.5724C20.8731 11.4598 20.7993 11.3575 20.7063 11.2713C20.6133 11.1852 20.5029 11.1169 20.3815 11.0703C20.2601 11.0238 20.13 10.9999 19.9986 11C19.8673 11.0001 19.7372 11.0243 19.6159 11.0711C19.4946 11.1179 19.3844 11.1864 19.2916 11.2727L13.291 16.844C13.1098 17.0132 13.0056 17.2407 13.0002 17.4793C12.9948 17.7179 13.0886 17.9493 13.262 18.1254L19.2866 23.7273C19.474 23.9016 19.7283 23.9997 19.9936 24C20.2589 24.0003 20.5135 23.9027 20.7013 23.7287C20.8891 23.5547 20.9947 23.3186 20.995 23.0723C20.9953 22.8259 20.8902 22.5896 20.7028 22.4153L15.4122 17.4986Z" fill="#141E35"/>
<circle opacity="0.5" cx="98.5" cy="17.5" r="17.5" fill="#F2E5FF"/>
<path d="M98.5 5C91.6008 5 86 10.6008 86 17.5C86 24.3992 91.6008 30 98.5 30C105.399 30 111 24.3992 111 17.5C111 10.6008 105.399 5 98.5 5ZM98.5 27.887C92.7719 27.887 88.113 23.2281 88.113 17.5C88.113 11.7719 92.7719 7.11303 98.5 7.11303C104.228 7.11303 108.887 11.7719 108.887 17.5C108.887 23.2281 104.228 27.887 98.5 27.887Z" fill="#141E35"/>
<path d="M100.588 17.5014L95.2922 22.4153C95.1994 22.5016 95.1259 22.604 95.0757 22.7168C95.0256 22.8295 94.9999 22.9503 95 23.0723C95.0001 23.1942 95.0262 23.315 95.0766 23.4276C95.1269 23.5402 95.2007 23.6425 95.2937 23.7287C95.3867 23.8148 95.4971 23.8831 95.6185 23.9297C95.7399 23.9762 95.87 24.0001 96.0014 24C96.1327 23.9999 96.2628 23.9757 96.3841 23.9289C96.5054 23.8821 96.6156 23.8136 96.7084 23.7273L102.709 18.156C102.89 17.9868 102.994 17.7593 103 17.5207C103.005 17.2821 102.911 17.0507 102.738 16.8746L96.7134 11.2727C96.526 11.0984 96.2717 11.0003 96.0064 11C95.7411 10.9997 95.4865 11.0973 95.2987 11.2713C95.1109 11.4453 95.0053 11.6814 95.005 11.9277C95.0047 12.1741 95.1098 12.4104 95.2972 12.5847L100.588 17.5014Z" fill="#141E35"/>
</svg>
