<svg width="35" height="116" viewBox="0 0 35 116" fill="none" xmlns="http://www.w3.org/2000/svg">
<circle opacity="0.5" cx="17.5" cy="17.5" r="17.5" transform="rotate(-90 17.5 17.5)" fill="#F2E5FF"/>
<path d="M5 17.5C5 24.3992 10.6008 30 17.5 30C24.3992 30 30 24.3992 30 17.5C30 10.6008 24.3992 5 17.5 5C10.6008 5 5 10.6008 5 17.5ZM27.887 17.5C27.887 23.2281 23.2281 27.887 17.5 27.887C11.7719 27.887 7.11303 23.2281 7.11303 17.5C7.11303 11.7719 11.7719 7.11303 17.5 7.11303C23.2281 7.11303 27.887 11.7719 27.887 17.5Z" fill="#141E35"/>
<path d="M17.5014 15.4122L22.4153 20.7078C22.5016 20.8006 22.604 20.8741 22.7168 20.9243C22.8295 20.9744 22.9503 21.0001 23.0723 21C23.1942 20.9999 23.315 20.9738 23.4276 20.9234C23.5402 20.8731 23.6425 20.7993 23.7287 20.7063C23.8148 20.6133 23.8831 20.5029 23.9297 20.3815C23.9762 20.2601 24.0001 20.13 24 19.9986C23.9999 19.8673 23.9757 19.7372 23.9289 19.6159C23.8821 19.4946 23.8136 19.3844 23.7273 19.2916L18.156 13.291C17.9868 13.1098 17.7593 13.0056 17.5207 13.0002C17.2821 12.9948 17.0507 13.0886 16.8746 13.262L11.2727 19.2866C11.0984 19.474 11.0003 19.7283 11 19.9936C10.9997 20.2589 11.0973 20.5135 11.2713 20.7013C11.4453 20.8891 11.6814 20.9947 11.9277 20.995C12.1741 20.9953 12.4104 20.8902 12.5847 20.7028L17.5014 15.4122Z" fill="#141E35"/>
<circle opacity="0.5" cx="17.5" cy="98.5" r="17.5" transform="rotate(90 17.5 98.5)" fill="#F2E5FF"/>
<path d="M30 98.5C30 91.6008 24.3992 86 17.5 86C10.6008 86 5 91.6008 5 98.5C5 105.399 10.6008 111 17.5 111C24.3992 111 30 105.399 30 98.5ZM7.11303 98.5C7.11303 92.7719 11.7719 88.113 17.5 88.113C23.2281 88.113 27.887 92.7719 27.887 98.5C27.887 104.228 23.2281 108.887 17.5 108.887C11.7719 108.887 7.11303 104.228 7.11303 98.5Z" fill="#141E35"/>
<path d="M17.4986 100.588L12.5847 95.2922C12.4984 95.1994 12.396 95.1259 12.2832 95.0757C12.1705 95.0256 12.0497 94.9999 11.9277 95C11.8058 95.0001 11.685 95.0262 11.5724 95.0766C11.4598 95.1269 11.3575 95.2007 11.2713 95.2937C11.1852 95.3867 11.1169 95.4971 11.0703 95.6185C11.0238 95.7399 10.9999 95.87 11 96.0014C11.0001 96.1327 11.0243 96.2628 11.0711 96.3841C11.1179 96.5054 11.1864 96.6156 11.2727 96.7084L16.844 102.709C17.0132 102.89 17.2407 102.994 17.4793 103C17.7179 103.005 17.9493 102.911 18.1254 102.738L23.7273 96.7134C23.9016 96.526 23.9997 96.2717 24 96.0064C24.0003 95.7411 23.9027 95.4865 23.7287 95.2987C23.5547 95.1109 23.3186 95.0053 23.0723 95.005C22.8259 95.0047 22.5896 95.1098 22.4153 95.2972L17.4986 100.588Z" fill="#141E35"/>
</svg>
