<svg width="15" height="15" viewBox="0 0 15 15" fill="none" xmlns="http://www.w3.org/2000/svg">
<path d="M4.7093 8.37209H1.9186C0.858488 8.37209 0 9.23058 0 10.2907V13.0814C0 14.1415 0.858488 15 1.9186 15H4.7093C5.76942 15 6.62791 14.1415 6.62791 13.0814V10.2907C6.62791 9.23058 5.76942 8.37209 4.7093 8.37209ZM5.5814 13.0814C5.5814 13.5638 5.19168 13.9535 4.7093 13.9535H1.9186C1.43623 13.9535 1.04651 13.5638 1.04651 13.0814V10.2907C1.04651 9.80832 1.43623 9.4186 1.9186 9.4186H4.7093C5.19168 9.4186 5.5814 9.80832 5.5814 10.2907V13.0814ZM13.0814 8.37209H10.2907C9.23058 8.37209 8.37209 9.23058 8.37209 10.2907V13.0814C8.37209 14.1415 9.23058 15 10.2907 15H13.0814C14.1415 15 15 14.1415 15 13.0814V10.2907C15 9.23058 14.1415 8.37209 13.0814 8.37209ZM13.9535 13.0814C13.9535 13.5638 13.5638 13.9535 13.0814 13.9535H10.2907C9.80832 13.9535 9.4186 13.5638 9.4186 13.0814V10.2907C9.4186 9.80832 9.80832 9.4186 10.2907 9.4186H13.0814C13.5638 9.4186 13.9535 9.80832 13.9535 10.2907V13.0814ZM4.7093 0H1.9186C0.858488 0 0 0.858488 0 1.9186V4.7093C0 5.76942 0.858488 6.62791 1.9186 6.62791H4.7093C5.76942 6.62791 6.62791 5.76942 6.62791 4.7093V1.9186C6.62791 0.858488 5.76942 0 4.7093 0ZM5.5814 4.7093C5.5814 5.19168 5.19168 5.5814 4.7093 5.5814H1.9186C1.43623 5.5814 1.04651 5.19168 1.04651 4.7093V1.9186C1.04651 1.43623 1.43623 1.04651 1.9186 1.04651H4.7093C5.19168 1.04651 5.5814 1.43623 5.5814 1.9186V4.7093ZM13.0814 0H10.2907C9.23058 0 8.37209 0.858488 8.37209 1.9186V4.7093C8.37209 5.76942 9.23058 6.62791 10.2907 6.62791H13.0814C14.1415 6.62791 15 5.76942 15 4.7093V1.9186C15 0.858488 14.1415 0 13.0814 0ZM13.9535 4.7093C13.9535 5.19168 13.5638 5.5814 13.0814 5.5814H10.2907C9.80832 5.5814 9.4186 5.19168 9.4186 4.7093V1.9186C9.4186 1.43623 9.80832 1.04651 10.2907 1.04651H13.0814C13.5638 1.04651 13.9535 1.43623 13.9535 1.9186V4.7093Z" fill="#141E35"/>
</svg>
