<svg width="23" height="24" viewBox="0 0 23 24" fill="none" xmlns="http://www.w3.org/2000/svg">
<path d="M10.6659 16.4571C10.1789 16.4571 9.74042 16.3492 9.35031 16.1334C8.96021 15.9176 8.64757 15.6217 8.4124 15.2456C8.17723 14.8695 8.04857 14.441 8.02644 13.96H9.02246C9.06119 14.3885 9.23549 14.7431 9.54537 15.0236C9.85801 15.3011 10.2315 15.4398 10.6659 15.4398C11.0145 15.4398 11.3244 15.3489 11.5955 15.167C11.8694 14.9851 12.0838 14.7354 12.2388 14.4178C12.3965 14.0972 12.4753 13.735 12.4753 13.3311C12.4753 12.918 12.3937 12.5496 12.2305 12.2259C12.07 11.8991 11.8487 11.6417 11.5665 11.4537C11.2842 11.2656 10.9619 11.1701 10.5995 11.167C10.3394 11.1639 10.0724 11.2086 9.79852 11.3011C9.52462 11.3905 9.29913 11.5061 9.12206 11.6479L8.15924 11.5184L8.67385 6.85714H13.0895V7.87448H9.53707L9.23826 10.6675H9.28806C9.46237 10.5134 9.68094 10.3855 9.94377 10.2837C10.2066 10.182 10.4805 10.1311 10.7655 10.1311C11.2856 10.1311 11.7491 10.2699 12.1558 10.5473C12.5652 10.8217 12.8862 11.1978 13.1186 11.6756C13.3538 12.1535 13.4713 12.6991 13.4713 13.3126C13.4713 13.9169 13.3496 14.4564 13.1061 14.9311C12.8654 15.4028 12.5334 15.7758 12.1101 16.0502C11.6868 16.3215 11.2054 16.4571 10.6659 16.4571Z" fill="#141E35"/>
<path d="M0 8.47059V1.41176L2.43939 3.88235C4.6 1.48235 7.73636 0 11.1515 0C17.703 0 23 5.36471 23 12C23 18.6353 17.703 24 11.1515 24C7.80606 24 4.80909 22.5882 2.64848 20.3294L4.6 18.2824C6.20303 20.0471 8.57273 21.1765 11.1515 21.1765C16.1697 21.1765 20.2121 17.0824 20.2121 12C20.2121 6.91765 16.1697 2.82353 11.1515 2.82353C8.50303 2.82353 6.06364 4.02353 4.39091 5.85882L6.9697 8.47059H0Z" fill="#141E35"/>
</svg>
