<svg width="35" height="35" viewBox="0 0 35 35" fill="none" xmlns="http://www.w3.org/2000/svg">
<circle opacity="0.5" cx="17.5" cy="17.5" r="17.5" transform="rotate(-90 17.5 17.5)" fill="#F2E5FF"/>
<path d="M5 17.5C5 24.3992 10.6008 30 17.5 30C24.3992 30 30 24.3992 30 17.5C30 10.6008 24.3992 5 17.5 5C10.6008 5 5 10.6008 5 17.5ZM27.887 17.5C27.887 23.2281 23.2281 27.887 17.5 27.887C11.7719 27.887 7.11303 23.2281 7.11303 17.5C7.11303 11.7719 11.7719 7.11303 17.5 7.11303C23.2281 7.11303 27.887 11.7719 27.887 17.5Z" fill="#141E35"/>
<path d="M17.5014 15.4122L22.4153 20.7078C22.5016 20.8006 22.604 20.8741 22.7168 20.9243C22.8295 20.9744 22.9503 21.0001 23.0723 21C23.1942 20.9999 23.315 20.9738 23.4276 20.9234C23.5402 20.8731 23.6425 20.7993 23.7287 20.7063C23.8148 20.6133 23.8831 20.5029 23.9297 20.3815C23.9762 20.2601 24.0001 20.13 24 19.9986C23.9999 19.8673 23.9757 19.7372 23.9289 19.6159C23.8821 19.4946 23.8136 19.3844 23.7273 19.2916L18.156 13.291C17.9868 13.1098 17.7593 13.0056 17.5207 13.0002C17.2821 12.9948 17.0507 13.0886 16.8746 13.262L11.2727 19.2866C11.0984 19.474 11.0003 19.7283 11 19.9936C10.9997 20.2589 11.0973 20.5135 11.2713 20.7013C11.4453 20.8891 11.6814 20.9947 11.9277 20.995C12.1741 20.9953 12.4104 20.8902 12.5847 20.7028L17.5014 15.4122Z" fill="#141E35"/>
</svg>
