<svg width="21" height="16" viewBox="0 0 21 16" fill="none" xmlns="http://www.w3.org/2000/svg">
<path d="M8.81933 0.146309L3.81957 4.24484L1.03 4.50234C0.450633 4.56671 0 5.03879 0 5.63962V9.43773C0 10.0171 0.450633 10.5106 1.03 10.575L3.81957 10.8325L8.81933 14.931C9.22704 15.2744 9.84932 14.9739 9.84932 14.4375V0.639859C9.82787 0.103403 9.22704 -0.197022 8.81933 0.146309Z" fill="#141E35"/>
<path d="M13.6473 5.16749C13.3683 4.69541 12.7246 4.58812 12.2954 4.95291L12.2311 4.99583C11.9306 5.25333 11.8448 5.70394 12.0379 6.04727C12.274 6.47644 12.4242 6.96999 12.4242 7.50644C12.4242 8.0429 12.274 8.53643 12.0379 8.9656C11.8448 9.30893 11.9306 9.75954 12.2311 10.017L12.2954 10.06C12.7031 10.4248 13.3683 10.3389 13.6473 9.84538C14.0336 9.15872 14.2696 8.34331 14.2696 7.48498C14.2696 6.66957 14.0336 5.87561 13.6473 5.16749Z" fill="#141E35"/>
<path d="M15.9005 3.04315C15.6001 2.61398 14.9778 2.54962 14.5915 2.89295L14.5486 2.93586C14.2268 3.23627 14.1624 3.72982 14.4199 4.09461C15.1065 5.06022 15.4928 6.26188 15.4928 7.52792C15.4928 8.81541 15.0851 9.99561 14.4199 10.9612C14.1624 11.326 14.2268 11.8196 14.5486 12.12L14.5915 12.1629C14.9778 12.5062 15.6001 12.4419 15.9005 12.0127C16.8017 10.7467 17.3167 9.20166 17.3167 7.52792C17.3167 5.85418 16.8017 4.30918 15.9005 3.04315Z" fill="#141E35"/>
<path d="M18.1537 0.96168C17.8319 0.553974 17.2525 0.489591 16.8662 0.832923L16.8019 0.875842C16.4585 1.17626 16.4156 1.69125 16.6946 2.05604C17.8533 3.57958 18.5185 5.4679 18.5185 7.50643C18.5185 9.54496 17.8319 11.4548 16.6946 12.9568C16.4156 13.3216 16.4585 13.8366 16.8019 14.137L16.8662 14.1799C17.2525 14.5233 17.8319 14.4589 18.1537 14.0512C19.5485 12.2272 20.3639 9.95266 20.3639 7.48497C20.3639 5.06019 19.5485 2.78563 18.1537 0.96168Z" fill="#141E35"/>
</svg>
